<?xml version="1.0" encoding="UTF-8" standalone="no"?>
<!-- Created with Inkscape (http://www.inkscape.org/) -->

<svg
   xmlns:dc="http://purl.org/dc/elements/1.1/"
   xmlns:cc="http://creativecommons.org/ns#"
   xmlns:rdf="http://www.w3.org/1999/02/22-rdf-syntax-ns#"
   xmlns:svg="http://www.w3.org/2000/svg"
   xmlns="http://www.w3.org/2000/svg"
   xmlns:sodipodi="http://sodipodi.sourceforge.net/DTD/sodipodi-0.dtd"
   xmlns:inkscape="http://www.inkscape.org/namespaces/inkscape"
   width="10mm"
   height="10mm"
   viewBox="0 0 10 10"
   version="1.1"
   id="svg8"
   inkscape:version="0.92.2 (5c3e80d, 2017-08-06)"
   sodipodi:docname="magnifier.svg"
   inkscape:export-filename="/home/francesco/Documenti/git/redlens/public/magnifier.png"
   inkscape:export-xdpi="1301.16"
   inkscape:export-ydpi="1301.16">
  <defs
     id="defs2" />
  <sodipodi:namedview
     id="base"
     pagecolor="#ffffff"
     bordercolor="#666666"
     borderopacity="1.0"
     inkscape:pageopacity="0.0"
     inkscape:pageshadow="2"
     inkscape:zoom="4"
     inkscape:cx="-51.281016"
     inkscape:cy="-21.338298"
     inkscape:document-units="mm"
     inkscape:current-layer="layer1"
     showgrid="false"
     inkscape:object-nodes="true"
     inkscape:snap-object-midpoints="false"
     inkscape:window-width="1283"
     inkscape:window-height="713"
     inkscape:window-x="83"
     inkscape:window-y="27"
     inkscape:window-maximized="1"
     inkscape:object-paths="true" />
  <metadata
     id="metadata5">
    <rdf:RDF>
      <cc:Work
         rdf:about="">
        <dc:format>image/svg+xml</dc:format>
        <dc:type
           rdf:resource="http://purl.org/dc/dcmitype/StillImage" />
        <dc:title />
      </cc:Work>
    </rdf:RDF>
  </metadata>
  <g
     inkscape:label="Livello 1"
     inkscape:groupmode="layer"
     id="layer1"
     transform="translate(-29.14732,-85.56601)">
    <g
       aria-label="ðŸ”"
       style="font-style:normal;font-weight:normal;font-size:10.58333302px;line-height:125%;font-family:sans-serif;letter-spacing:0px;word-spacing:0px;fill:#fe3333;fill-opacity:1;stroke:none;stroke-width:0.26101226px;stroke-linecap:butt;stroke-linejoin:miter;stroke-opacity:1"
       id="text817"
       transform="matrix(1.0136816,0,0,1.0136816,-0.3988166,-1.3074919)">
      <path
         d="m 39.009798,94.449796 q 0,0.124023 -0.19637,0.330729 -0.149862,0.139527 -0.299723,0.284221 -0.144694,0.165364 -0.465088,0.45992 -0.05168,0.04134 -0.144694,0.04134 -0.113688,0 -0.428915,-0.341065 0,0 -1.493448,-1.488281 -0.201539,-0.1757 -0.552938,-0.558105 -0.03617,-0.04651 -0.03617,-0.134359 0,-0.160197 0.222209,-0.320394 l -0.377238,-0.377238 q -1.131714,0.831991 -2.351278,0.831991 -1.503784,0 -2.619995,-1.116211 -1.116211,-1.121379 -1.116211,-2.63033 0,-1.503785 1.121379,-2.614828 1.121378,-1.116211 2.625163,-1.116211 1.514119,0 2.63033,1.116211 1.116211,1.116211 1.116211,2.630331 0,1.18339 -0.816488,2.315104 l 0.361735,0.361735 q 0.201538,-0.1757 0.299724,-0.1757 0.144694,0 0.439249,0.304891 0.45992,0.454752 1.379761,1.369425 0.237712,0.217041 0.661458,0.676961 0.04134,0.05684 0.04134,0.149862 z m -2.91455,-2.222087 q -0.191203,-0.191202 -0.372071,-0.346232 -0.10852,0.09819 -0.186035,0.201538 0.118856,0.129192 0.377238,0.361736 z M 36.255445,89.3545 q 0,-1.369425 -0.98702,-2.356445 -0.98702,-0.992188 -2.356445,-0.992188 -1.374594,0 -2.356446,0.98702 -0.976684,0.98702 -0.976684,2.361613 0,1.379761 0.976684,2.356445 0.976685,0.971517 2.356446,0.971517 1.374593,0 2.356445,-0.976684 0.98702,-0.976685 0.98702,-2.351278 z m -0.465088,3.15743 -0.356568,-0.341065 q -0.03617,0.02584 -0.08785,0.08785 l 0.356568,0.361735 q 0.06718,-0.06718 0.08785,-0.10852 z m 2.242757,2.578654 -2.08256,-2.077393 0.676961,-0.676961 q -0.08785,-0.06718 -0.139526,-0.06718 -0.07235,0 -0.41858,0.351399 -0.341064,0.346232 -0.341064,0.428915 0,0.05684 0.08268,0.144694 0.304891,0.325561 1.07487,1.080037 0.919841,0.904338 0.997355,0.904338 0.09819,0 0.149862,-0.08785 z M 35.82653,89.344165 q 0,1.235066 -0.842326,2.072225 -0.837158,0.83199 -2.056722,0.83199 h -0.144694 q -1.069702,0 -1.92753,-0.842326 -0.852662,-0.842326 -0.852662,-1.90686 0.206706,0.945679 0.925009,1.539958 0.718302,0.589111 1.679484,0.589111 1.080037,0 1.844848,-0.764811 0.764811,-0.764811 0.764811,-1.844849 0,-0.914673 -0.558105,-1.627807 -0.552938,-0.697632 -1.441773,-0.945679 h 0.05168 q 0.341064,0 0.888835,0.248047 0.785481,0.356567 1.224731,1.069702 0.444417,0.707967 0.444417,1.581299 z m -3.457153,-1.286743 q 0,0.387573 -0.289388,0.676961 -0.28422,0.28422 -0.671794,0.28422 -0.320393,0 -0.578776,-0.19637 -0.258382,-0.201538 -0.346232,-0.511597 0.284221,0.434082 0.754476,0.434082 0.346232,0 0.599447,-0.248047 0.258382,-0.253214 0.258382,-0.594279 0,-0.537435 -0.449585,-0.754476 0.310059,0.09819 0.516764,0.346232 0.206706,0.248047 0.206706,0.563274 z"
         style="stroke-width:0.26101226px;fill:#fe3333;fill-opacity:1"
         id="path819"
         inkscape:connector-curvature="0" />
    </g>
    <g
       aria-label="ðŸ”"
       style="font-style:normal;font-weight:normal;font-size:10.58333302px;line-height:125%;font-family:sans-serif;letter-spacing:0px;word-spacing:0px;fill:#fe3333;fill-opacity:1;stroke:none;stroke-width:0.26101226px;stroke-linecap:butt;stroke-linejoin:miter;stroke-opacity:1"
       id="text817-6"
       transform="matrix(1.0136816,0,0,1.0136816,-12.906369,-1.1361375)" />
    <g
       aria-label="ðŸ”"
       style="font-style:normal;font-weight:normal;font-size:10.58333302px;line-height:125%;font-family:sans-serif;letter-spacing:0px;word-spacing:0px;fill:#fe3333;fill-opacity:0.501845;stroke:none;stroke-width:0.26101226px;stroke-linecap:butt;stroke-linejoin:miter;stroke-opacity:1"
       id="text817-5"
       transform="matrix(1.0136816,0,0,1.0136816,-0.3988166,-1.3074919)">
      <path
         d="m 36.255445,89.3545 c 0,-0.91295 -0.329007,-1.698432 -0.98702,-2.356445 -0.658013,-0.661459 -1.443495,-0.992188 -2.356445,-0.992188 -0.916396,0 -1.701878,0.329007 -2.356446,0.98702 -0.651123,0.658013 -0.976684,1.445218 -0.976684,2.361613 0,0.919841 0.325561,1.705322 0.976684,2.356445 0.651123,0.647678 1.436605,0.971517 2.356446,0.971517 0.916395,0 1.701877,-0.325561 2.356445,-0.976684 0.658013,-0.651123 0.98702,-1.434883 0.98702,-2.351278 z"
         style="fill:#fe3333;fill-opacity:0.501845;stroke-width:0.26101226px"
         id="path819-6"
         inkscape:connector-curvature="0"
         sodipodi:nodetypes="scscscscs" />
    </g>
    <g
       aria-label="ðŸ”"
       style="font-style:normal;font-weight:normal;font-size:10.58333302px;line-height:125%;font-family:sans-serif;letter-spacing:0px;word-spacing:0px;fill:#fefffe;fill-opacity:1;stroke:none;stroke-width:0.26101226px;stroke-linecap:butt;stroke-linejoin:miter;stroke-opacity:1"
       id="text817-2"
       transform="matrix(1.0136816,0,0,1.0136816,-0.3988166,-1.3074919)">
      <path
         d="m 36.095248,92.227709 c -0.127469,-0.127468 -0.251492,-0.242879 -0.372071,-0.346232 -0.07235,0.06546 -0.134358,0.132639 -0.186035,0.201538 0.07924,0.08613 0.204983,0.206707 0.377238,0.361736 z m -0.304891,0.284221 -0.356568,-0.341065 c -0.02411,0.01723 -0.0534,0.04651 -0.08785,0.08785 l 0.356568,0.361735 c 0.04479,-0.04479 0.07407,-0.08096 0.08785,-0.10852 z m 2.242757,2.578654 -2.08256,-2.077393 0.676961,-0.676961 c -0.05857,-0.04479 -0.105075,-0.06718 -0.139526,-0.06718 -0.04823,0 -0.18776,0.117133 -0.41858,0.351399 -0.227376,0.230821 -0.341064,0.373793 -0.341064,0.428915 0,0.03789 0.02756,0.08613 0.08268,0.144694 0.203261,0.217041 0.561551,0.577053 1.07487,1.080037 0.613227,0.602892 0.945679,0.904338 0.997355,0.904338 0.06546,0 0.115414,-0.02928 0.149862,-0.08785 z M 35.82653,89.344165 c 0,0.823377 -0.280775,1.514119 -0.842326,2.072225 -0.558105,0.55466 -1.243679,0.83199 -2.056722,0.83199 h -0.144694 c -0.713135,0 -1.355645,-0.280775 -1.92753,-0.842326 -0.568441,-0.561551 -0.852662,-1.197171 -0.852662,-1.90686 0.137804,0.630453 0.44614,1.143772 0.925009,1.539958 0.478868,0.392741 1.038696,0.589111 1.679484,0.589111 0.720025,0 1.334974,-0.254937 1.844848,-0.764811 0.509874,-0.509874 0.764811,-1.124824 0.764811,-1.844849 0,-0.609782 -0.186035,-1.152384 -0.558105,-1.627807 -0.368625,-0.465088 -0.849216,-0.780314 -1.441773,-0.945679 h 0.05168 c 0.227376,0 0.523654,0.08268 0.888835,0.248047 0.523654,0.237711 0.931898,0.594279 1.224731,1.069702 0.296278,0.471978 0.444417,0.999078 0.444417,1.581299 z m -3.457153,-1.286743 c 0,0.258382 -0.09646,0.484036 -0.289388,0.676961 -0.18948,0.18948 -0.413411,0.28422 -0.671794,0.28422 -0.213595,0 -0.406521,-0.06546 -0.578776,-0.19637 -0.172255,-0.134359 -0.287665,-0.304891 -0.346232,-0.511597 0.189481,0.289388 0.440973,0.434082 0.754476,0.434082 0.230821,0 0.430637,-0.08268 0.599447,-0.248047 0.172255,-0.168809 0.258382,-0.366902 0.258382,-0.594279 0,-0.35829 -0.149862,-0.609782 -0.449585,-0.754476 0.206706,0.06546 0.378961,0.180871 0.516764,0.346232 0.137804,0.165365 0.206706,0.353123 0.206706,0.563274 z"
         style="fill:#fefffe;fill-opacity:1;stroke-width:0.26101226px"
         id="path819-9"
         inkscape:connector-curvature="0"
         sodipodi:nodetypes="cccccccccccccscsccsccccsscccsssccsccccsssccscsccs" />
    </g>
  </g>
</svg>
